<svg width="750" height="250" viewBox="0 0 750 250" fill="none" xmlns="http://www.w3.org/2000/svg">
<g filter="url(#filter0_d_1_5)">
<rect x="10" y="10" width="700" height="200" rx="30" fill="#758BFD"/>
<g filter="url(#filter1_d_1_5)">
<mask id="path-2-outside-1_1_5" maskUnits="userSpaceOnUse" x="215" y="54" width="416" height="101" fill="black">
<rect fill="white" x="215" y="54" width="416" height="101"/>
<path d="M218.594 113C217.292 113 216.641 112.284 216.641 110.852V59.1328C216.641 57.7005 217.292 56.9844 218.594 56.9844H235C243.854 56.9844 249.831 58.4818 252.93 61.4766C256.029 64.4453 257.578 68.5339 257.578 73.7422C257.578 78.9505 256.029 83.0521 252.93 86.0469C249.831 89.0156 243.854 90.5 235 90.5H224.141V110.852C224.141 112.284 223.49 113 222.188 113H218.594ZM224.141 84.0938H235.117C240.846 84.0938 244.753 83.2865 246.836 81.6719C248.919 80.0312 249.961 77.388 249.961 73.7422C249.961 70.0964 248.919 67.4661 246.836 65.8516C244.753 64.2109 240.846 63.3906 235.117 63.3906H224.141V84.0938ZM268.398 113C267.227 113 266.641 112.414 266.641 111.242V73.7422C266.641 72.5703 267.227 71.9844 268.398 71.9844H271.68C272.852 71.9844 273.438 72.5703 273.438 73.7422V78.4297H273.594C274.844 76.0859 276.315 74.3151 278.008 73.1172C279.701 71.9193 281.81 71.3203 284.336 71.3203C286.003 71.3203 287.174 71.4635 287.852 71.75C288.451 71.9844 288.672 72.375 288.516 72.9219L287.617 76.125C287.487 76.5938 287.148 76.776 286.602 76.6719C285.69 76.4896 284.831 76.3984 284.023 76.3984C280.977 76.3984 278.464 77.7786 276.484 80.5391C274.505 83.2734 273.516 87.0104 273.516 91.75V111.242C273.516 112.414 272.93 113 271.758 113H268.398ZM292.617 92.4922C292.617 86.3724 294.232 81.3203 297.461 77.3359C300.716 73.3255 305.469 71.3203 311.719 71.3203C317.969 71.3203 322.708 73.3255 325.938 77.3359C329.193 81.3203 330.82 86.3724 330.82 92.4922C330.82 98.612 329.193 103.677 325.938 107.688C322.708 111.672 317.969 113.664 311.719 113.664C305.469 113.664 300.716 111.672 297.461 107.688C294.232 103.677 292.617 98.612 292.617 92.4922ZM299.883 92.4922C299.883 97.9609 300.964 102.01 303.125 104.641C305.286 107.271 308.151 108.586 311.719 108.586C315.286 108.586 318.151 107.271 320.312 104.641C322.474 102.01 323.555 97.9609 323.555 92.4922C323.555 87.0234 322.474 82.974 320.312 80.3438C318.151 77.7135 315.286 76.3984 311.719 76.3984C308.151 76.3984 305.286 77.7135 303.125 80.3438C300.964 82.974 299.883 87.0234 299.883 92.4922ZM337.461 92.4922C337.461 86.8932 338.815 81.9714 341.523 77.7266C344.232 73.4557 348.19 71.3203 353.398 71.3203C356.393 71.3203 358.789 71.8151 360.586 72.8047C362.383 73.7943 363.997 75.1484 365.43 76.8672H365.508C365.456 76.0859 365.43 75.2917 365.43 74.4844V57.1016C365.43 55.9297 366.016 55.3438 367.188 55.3438H370.547C371.719 55.3438 372.305 55.9297 372.305 57.1016V111.242C372.305 112.414 371.719 113 370.547 113H367.266C366.328 113 365.82 112.414 365.742 111.242L365.508 108.117H365.43C363.997 109.836 362.383 111.19 360.586 112.18C358.789 113.169 356.393 113.664 353.398 113.664C348.19 113.664 344.232 111.542 341.523 107.297C338.815 103.026 337.461 98.0911 337.461 92.4922ZM344.727 92.4922C344.727 97.2839 345.547 101.164 347.188 104.133C348.854 107.102 351.667 108.586 355.625 108.586C358.438 108.586 360.768 107.635 362.617 105.734C364.492 103.807 365.43 100.891 365.43 96.9844V88C365.43 84.0938 364.492 81.1901 362.617 79.2891C360.768 77.362 358.438 76.3984 355.625 76.3984C351.667 76.3984 348.854 77.8828 347.188 80.8516C345.547 83.8203 344.727 87.7005 344.727 92.4922ZM383.359 98.7031V73.7422C383.359 72.5703 383.945 71.9844 385.117 71.9844H388.477C389.648 71.9844 390.234 72.5703 390.234 73.7422V96.8281C390.234 101.932 391.081 105.174 392.773 106.555C394.466 107.909 396.562 108.586 399.062 108.586C402.344 108.586 404.857 107.583 406.602 105.578C408.346 103.547 409.219 100.083 409.219 95.1875V73.7422C409.219 72.5703 409.805 71.9844 410.977 71.9844H414.336C415.508 71.9844 416.094 72.5703 416.094 73.7422V111.242C416.094 112.414 415.508 113 414.336 113H411.055C409.883 113 409.297 112.414 409.297 111.242V108.117H409.141C407.448 109.992 405.625 111.385 403.672 112.297C401.719 113.208 399.336 113.664 396.523 113.664C391.966 113.664 388.633 112.336 386.523 109.68C384.414 106.997 383.359 103.339 383.359 98.7031ZM424.961 92.4922C424.961 86.3724 426.471 81.3203 429.492 77.3359C432.539 73.3255 437.188 71.3203 443.438 71.3203C447.656 71.3203 450.872 72.0755 453.086 73.5859C455.326 75.0703 456.94 76.5938 457.93 78.1562C458.477 79.0156 458.359 79.7057 457.578 80.2266L455.117 81.8281C454.336 82.375 453.555 82.0234 452.773 80.7734C452.018 79.5755 450.951 78.5469 449.57 77.6875C448.216 76.8281 446.172 76.3984 443.438 76.3984C439.87 76.3984 437.109 77.7135 435.156 80.3438C433.203 82.974 432.227 87.0234 432.227 92.4922C432.227 97.9609 433.203 102.01 435.156 104.641C437.109 107.271 439.87 108.586 443.438 108.586C446.328 108.586 448.542 108.039 450.078 106.945C451.615 105.826 452.734 104.615 453.438 103.312C454.115 102.089 454.883 101.737 455.742 102.258L458.359 103.82C459.141 104.289 459.258 104.992 458.711 105.93C458.06 107.049 456.576 108.625 454.258 110.656C451.966 112.661 448.359 113.664 443.438 113.664C437.188 113.664 432.539 111.672 429.492 107.688C426.471 103.677 424.961 98.612 424.961 92.4922ZM465.273 77.1406C464.102 77.1406 463.516 76.6849 463.516 75.7734V73.3516C463.516 72.4401 464.102 71.9844 465.273 71.9844H469.883V68.4688C469.883 67.9479 470.013 67.4531 470.273 66.9844L473.008 62.0234C473.503 61.112 473.906 60.6562 474.219 60.6562H475.586C476.367 60.6562 476.758 61.112 476.758 62.0234V71.9844H485.078C486.25 71.9844 486.836 72.4401 486.836 73.3516V75.7734C486.836 76.6849 486.25 77.1406 485.078 77.1406H476.758V102.023C476.758 104.758 477.161 106.542 477.969 107.375C478.802 108.182 479.792 108.586 480.938 108.586C481.823 108.586 482.878 108.326 484.102 107.805C485.352 107.284 486.211 106.841 486.68 106.477C487.148 106.112 487.513 106.229 487.773 106.828L489.062 109.836C489.271 110.357 489.115 110.773 488.594 111.086C487.578 111.685 486.094 112.271 484.141 112.844C482.188 113.391 480.234 113.664 478.281 113.664C475.573 113.664 473.49 112.688 472.031 110.734C470.599 108.781 469.883 106.021 469.883 102.453V77.1406H465.273ZM511.641 153C510.339 153 509.688 152.284 509.688 150.852V99.1328C509.688 97.7005 510.339 96.9844 511.641 96.9844H515.234C516.536 96.9844 517.188 97.7005 517.188 99.1328V146.594H543.086C544.518 146.594 545.234 147.18 545.234 148.352V151.242C545.234 152.414 544.518 153 543.086 153H511.641ZM554.727 153C553.555 153 552.969 152.414 552.969 151.242V113.742C552.969 112.57 553.555 111.984 554.727 111.984H558.086C559.258 111.984 559.844 112.57 559.844 113.742V151.242C559.844 152.414 559.258 153 558.086 153H554.727ZM554.727 104.562C553.555 104.562 552.969 103.977 552.969 102.805V99.4453C552.969 98.2734 553.555 97.6875 554.727 97.6875H558.086C559.258 97.6875 559.844 98.2734 559.844 99.4453V102.805C559.844 103.977 559.258 104.562 558.086 104.562H554.727ZM569.336 149.172C568.529 148.417 568.359 147.714 568.828 147.062L570.586 144.602C571.159 143.82 572.005 143.859 573.125 144.719C574.661 145.891 576.367 146.828 578.242 147.531C580.143 148.234 582.305 148.586 584.727 148.586C586.159 148.586 587.435 148.417 588.555 148.078C589.674 147.714 590.651 147.049 591.484 146.086C592.344 145.122 592.773 143.833 592.773 142.219C592.773 141.281 592.565 140.396 592.148 139.562C591.758 138.729 591.133 138.065 590.273 137.57C589.44 137.049 588.62 136.646 587.812 136.359C586.484 135.865 585.156 135.461 583.828 135.148C582.526 134.81 580.807 134.302 578.672 133.625C577.24 133.182 575.885 132.557 574.609 131.75C573.333 130.917 572.214 129.797 571.25 128.391C570.312 126.984 569.844 125.044 569.844 122.57C569.844 120.044 570.612 117.87 572.148 116.047C573.685 114.224 575.612 112.987 577.93 112.336C580.247 111.659 582.5 111.32 584.688 111.32C587.917 111.32 590.508 111.698 592.461 112.453C594.44 113.182 596.146 114.055 597.578 115.07C598.411 115.669 598.529 116.359 597.93 117.141L596.172 119.484C595.625 120.24 594.779 120.214 593.633 119.406C592.669 118.729 591.302 118.091 589.531 117.492C587.76 116.893 586.211 116.594 584.883 116.594C583.242 116.594 581.836 116.776 580.664 117.141C579.492 117.505 578.542 118.13 577.812 119.016C577.083 119.901 576.719 120.943 576.719 122.141C576.719 123.052 576.862 123.872 577.148 124.602C577.435 125.305 577.969 125.956 578.75 126.555C579.531 127.154 580.625 127.635 582.031 128C584.219 128.573 586.211 129.094 588.008 129.562C589.831 130.031 591.471 130.604 592.93 131.281C594.831 132.167 596.289 133.143 597.305 134.211C598.346 135.279 599.062 136.438 599.453 137.688C599.844 138.911 600.039 140.279 600.039 141.789C600.039 144.576 599.206 146.932 597.539 148.859C595.898 150.786 594.062 152.076 592.031 152.727C590 153.352 587.552 153.664 584.688 153.664C580.807 153.664 577.474 153.117 574.688 152.023C571.927 150.904 570.143 149.953 569.336 149.172ZM605.82 117.141C604.648 117.141 604.062 116.685 604.062 115.773V113.352C604.062 112.44 604.648 111.984 605.82 111.984H610.43V108.469C610.43 107.948 610.56 107.453 610.82 106.984L613.555 102.023C614.049 101.112 614.453 100.656 614.766 100.656H616.133C616.914 100.656 617.305 101.112 617.305 102.023V111.984H625.625C626.797 111.984 627.383 112.44 627.383 113.352V115.773C627.383 116.685 626.797 117.141 625.625 117.141H617.305V142.023C617.305 144.758 617.708 146.542 618.516 147.375C619.349 148.182 620.339 148.586 621.484 148.586C622.37 148.586 623.424 148.326 624.648 147.805C625.898 147.284 626.758 146.841 627.227 146.477C627.695 146.112 628.06 146.229 628.32 146.828L629.609 149.836C629.818 150.357 629.661 150.773 629.141 151.086C628.125 151.685 626.641 152.271 624.688 152.844C622.734 153.391 620.781 153.664 618.828 153.664C616.12 153.664 614.036 152.688 612.578 150.734C611.146 148.781 610.43 146.021 610.43 142.453V117.141H605.82Z"/>
</mask>
<path d="M218.594 113C217.292 113 216.641 112.284 216.641 110.852V59.1328C216.641 57.7005 217.292 56.9844 218.594 56.9844H235C243.854 56.9844 249.831 58.4818 252.93 61.4766C256.029 64.4453 257.578 68.5339 257.578 73.7422C257.578 78.9505 256.029 83.0521 252.93 86.0469C249.831 89.0156 243.854 90.5 235 90.5H224.141V110.852C224.141 112.284 223.49 113 222.188 113H218.594ZM224.141 84.0938H235.117C240.846 84.0938 244.753 83.2865 246.836 81.6719C248.919 80.0312 249.961 77.388 249.961 73.7422C249.961 70.0964 248.919 67.4661 246.836 65.8516C244.753 64.2109 240.846 63.3906 235.117 63.3906H224.141V84.0938ZM268.398 113C267.227 113 266.641 112.414 266.641 111.242V73.7422C266.641 72.5703 267.227 71.9844 268.398 71.9844H271.68C272.852 71.9844 273.438 72.5703 273.438 73.7422V78.4297H273.594C274.844 76.0859 276.315 74.3151 278.008 73.1172C279.701 71.9193 281.81 71.3203 284.336 71.3203C286.003 71.3203 287.174 71.4635 287.852 71.75C288.451 71.9844 288.672 72.375 288.516 72.9219L287.617 76.125C287.487 76.5938 287.148 76.776 286.602 76.6719C285.69 76.4896 284.831 76.3984 284.023 76.3984C280.977 76.3984 278.464 77.7786 276.484 80.5391C274.505 83.2734 273.516 87.0104 273.516 91.75V111.242C273.516 112.414 272.93 113 271.758 113H268.398ZM292.617 92.4922C292.617 86.3724 294.232 81.3203 297.461 77.3359C300.716 73.3255 305.469 71.3203 311.719 71.3203C317.969 71.3203 322.708 73.3255 325.938 77.3359C329.193 81.3203 330.82 86.3724 330.82 92.4922C330.82 98.612 329.193 103.677 325.938 107.688C322.708 111.672 317.969 113.664 311.719 113.664C305.469 113.664 300.716 111.672 297.461 107.688C294.232 103.677 292.617 98.612 292.617 92.4922ZM299.883 92.4922C299.883 97.9609 300.964 102.01 303.125 104.641C305.286 107.271 308.151 108.586 311.719 108.586C315.286 108.586 318.151 107.271 320.312 104.641C322.474 102.01 323.555 97.9609 323.555 92.4922C323.555 87.0234 322.474 82.974 320.312 80.3438C318.151 77.7135 315.286 76.3984 311.719 76.3984C308.151 76.3984 305.286 77.7135 303.125 80.3438C300.964 82.974 299.883 87.0234 299.883 92.4922ZM337.461 92.4922C337.461 86.8932 338.815 81.9714 341.523 77.7266C344.232 73.4557 348.19 71.3203 353.398 71.3203C356.393 71.3203 358.789 71.8151 360.586 72.8047C362.383 73.7943 363.997 75.1484 365.43 76.8672H365.508C365.456 76.0859 365.43 75.2917 365.43 74.4844V57.1016C365.43 55.9297 366.016 55.3438 367.188 55.3438H370.547C371.719 55.3438 372.305 55.9297 372.305 57.1016V111.242C372.305 112.414 371.719 113 370.547 113H367.266C366.328 113 365.82 112.414 365.742 111.242L365.508 108.117H365.43C363.997 109.836 362.383 111.19 360.586 112.18C358.789 113.169 356.393 113.664 353.398 113.664C348.19 113.664 344.232 111.542 341.523 107.297C338.815 103.026 337.461 98.0911 337.461 92.4922ZM344.727 92.4922C344.727 97.2839 345.547 101.164 347.188 104.133C348.854 107.102 351.667 108.586 355.625 108.586C358.438 108.586 360.768 107.635 362.617 105.734C364.492 103.807 365.43 100.891 365.43 96.9844V88C365.43 84.0938 364.492 81.1901 362.617 79.2891C360.768 77.362 358.438 76.3984 355.625 76.3984C351.667 76.3984 348.854 77.8828 347.188 80.8516C345.547 83.8203 344.727 87.7005 344.727 92.4922ZM383.359 98.7031V73.7422C383.359 72.5703 383.945 71.9844 385.117 71.9844H388.477C389.648 71.9844 390.234 72.5703 390.234 73.7422V96.8281C390.234 101.932 391.081 105.174 392.773 106.555C394.466 107.909 396.562 108.586 399.062 108.586C402.344 108.586 404.857 107.583 406.602 105.578C408.346 103.547 409.219 100.083 409.219 95.1875V73.7422C409.219 72.5703 409.805 71.9844 410.977 71.9844H414.336C415.508 71.9844 416.094 72.5703 416.094 73.7422V111.242C416.094 112.414 415.508 113 414.336 113H411.055C409.883 113 409.297 112.414 409.297 111.242V108.117H409.141C407.448 109.992 405.625 111.385 403.672 112.297C401.719 113.208 399.336 113.664 396.523 113.664C391.966 113.664 388.633 112.336 386.523 109.68C384.414 106.997 383.359 103.339 383.359 98.7031ZM424.961 92.4922C424.961 86.3724 426.471 81.3203 429.492 77.3359C432.539 73.3255 437.188 71.3203 443.438 71.3203C447.656 71.3203 450.872 72.0755 453.086 73.5859C455.326 75.0703 456.94 76.5938 457.93 78.1562C458.477 79.0156 458.359 79.7057 457.578 80.2266L455.117 81.8281C454.336 82.375 453.555 82.0234 452.773 80.7734C452.018 79.5755 450.951 78.5469 449.57 77.6875C448.216 76.8281 446.172 76.3984 443.438 76.3984C439.87 76.3984 437.109 77.7135 435.156 80.3438C433.203 82.974 432.227 87.0234 432.227 92.4922C432.227 97.9609 433.203 102.01 435.156 104.641C437.109 107.271 439.87 108.586 443.438 108.586C446.328 108.586 448.542 108.039 450.078 106.945C451.615 105.826 452.734 104.615 453.438 103.312C454.115 102.089 454.883 101.737 455.742 102.258L458.359 103.82C459.141 104.289 459.258 104.992 458.711 105.93C458.06 107.049 456.576 108.625 454.258 110.656C451.966 112.661 448.359 113.664 443.438 113.664C437.188 113.664 432.539 111.672 429.492 107.688C426.471 103.677 424.961 98.612 424.961 92.4922ZM465.273 77.1406C464.102 77.1406 463.516 76.6849 463.516 75.7734V73.3516C463.516 72.4401 464.102 71.9844 465.273 71.9844H469.883V68.4688C469.883 67.9479 470.013 67.4531 470.273 66.9844L473.008 62.0234C473.503 61.112 473.906 60.6562 474.219 60.6562H475.586C476.367 60.6562 476.758 61.112 476.758 62.0234V71.9844H485.078C486.25 71.9844 486.836 72.4401 486.836 73.3516V75.7734C486.836 76.6849 486.25 77.1406 485.078 77.1406H476.758V102.023C476.758 104.758 477.161 106.542 477.969 107.375C478.802 108.182 479.792 108.586 480.938 108.586C481.823 108.586 482.878 108.326 484.102 107.805C485.352 107.284 486.211 106.841 486.68 106.477C487.148 106.112 487.513 106.229 487.773 106.828L489.062 109.836C489.271 110.357 489.115 110.773 488.594 111.086C487.578 111.685 486.094 112.271 484.141 112.844C482.188 113.391 480.234 113.664 478.281 113.664C475.573 113.664 473.49 112.688 472.031 110.734C470.599 108.781 469.883 106.021 469.883 102.453V77.1406H465.273ZM511.641 153C510.339 153 509.688 152.284 509.688 150.852V99.1328C509.688 97.7005 510.339 96.9844 511.641 96.9844H515.234C516.536 96.9844 517.188 97.7005 517.188 99.1328V146.594H543.086C544.518 146.594 545.234 147.18 545.234 148.352V151.242C545.234 152.414 544.518 153 543.086 153H511.641ZM554.727 153C553.555 153 552.969 152.414 552.969 151.242V113.742C552.969 112.57 553.555 111.984 554.727 111.984H558.086C559.258 111.984 559.844 112.57 559.844 113.742V151.242C559.844 152.414 559.258 153 558.086 153H554.727ZM554.727 104.562C553.555 104.562 552.969 103.977 552.969 102.805V99.4453C552.969 98.2734 553.555 97.6875 554.727 97.6875H558.086C559.258 97.6875 559.844 98.2734 559.844 99.4453V102.805C559.844 103.977 559.258 104.562 558.086 104.562H554.727ZM569.336 149.172C568.529 148.417 568.359 147.714 568.828 147.062L570.586 144.602C571.159 143.82 572.005 143.859 573.125 144.719C574.661 145.891 576.367 146.828 578.242 147.531C580.143 148.234 582.305 148.586 584.727 148.586C586.159 148.586 587.435 148.417 588.555 148.078C589.674 147.714 590.651 147.049 591.484 146.086C592.344 145.122 592.773 143.833 592.773 142.219C592.773 141.281 592.565 140.396 592.148 139.562C591.758 138.729 591.133 138.065 590.273 137.57C589.44 137.049 588.62 136.646 587.812 136.359C586.484 135.865 585.156 135.461 583.828 135.148C582.526 134.81 580.807 134.302 578.672 133.625C577.24 133.182 575.885 132.557 574.609 131.75C573.333 130.917 572.214 129.797 571.25 128.391C570.312 126.984 569.844 125.044 569.844 122.57C569.844 120.044 570.612 117.87 572.148 116.047C573.685 114.224 575.612 112.987 577.93 112.336C580.247 111.659 582.5 111.32 584.688 111.32C587.917 111.32 590.508 111.698 592.461 112.453C594.44 113.182 596.146 114.055 597.578 115.07C598.411 115.669 598.529 116.359 597.93 117.141L596.172 119.484C595.625 120.24 594.779 120.214 593.633 119.406C592.669 118.729 591.302 118.091 589.531 117.492C587.76 116.893 586.211 116.594 584.883 116.594C583.242 116.594 581.836 116.776 580.664 117.141C579.492 117.505 578.542 118.13 577.812 119.016C577.083 119.901 576.719 120.943 576.719 122.141C576.719 123.052 576.862 123.872 577.148 124.602C577.435 125.305 577.969 125.956 578.75 126.555C579.531 127.154 580.625 127.635 582.031 128C584.219 128.573 586.211 129.094 588.008 129.562C589.831 130.031 591.471 130.604 592.93 131.281C594.831 132.167 596.289 133.143 597.305 134.211C598.346 135.279 599.062 136.438 599.453 137.688C599.844 138.911 600.039 140.279 600.039 141.789C600.039 144.576 599.206 146.932 597.539 148.859C595.898 150.786 594.062 152.076 592.031 152.727C590 153.352 587.552 153.664 584.688 153.664C580.807 153.664 577.474 153.117 574.688 152.023C571.927 150.904 570.143 149.953 569.336 149.172ZM605.82 117.141C604.648 117.141 604.062 116.685 604.062 115.773V113.352C604.062 112.44 604.648 111.984 605.82 111.984H610.43V108.469C610.43 107.948 610.56 107.453 610.82 106.984L613.555 102.023C614.049 101.112 614.453 100.656 614.766 100.656H616.133C616.914 100.656 617.305 101.112 617.305 102.023V111.984H625.625C626.797 111.984 627.383 112.44 627.383 113.352V115.773C627.383 116.685 626.797 117.141 625.625 117.141H617.305V142.023C617.305 144.758 617.708 146.542 618.516 147.375C619.349 148.182 620.339 148.586 621.484 148.586C622.37 148.586 623.424 148.326 624.648 147.805C625.898 147.284 626.758 146.841 627.227 146.477C627.695 146.112 628.06 146.229 628.32 146.828L629.609 149.836C629.818 150.357 629.661 150.773 629.141 151.086C628.125 151.685 626.641 152.271 624.688 152.844C622.734 153.391 620.781 153.664 618.828 153.664C616.12 153.664 614.036 152.688 612.578 150.734C611.146 148.781 610.43 146.021 610.43 142.453V117.141H605.82Z" fill="#101630"/>
<path d="M252.93 61.4766L252.235 62.1957L252.238 62.1987L252.93 61.4766ZM252.93 86.0469L253.621 86.769L253.625 86.766L252.93 86.0469ZM224.141 90.5V89.5H223.141V90.5H224.141ZM224.141 84.0938H223.141V85.0938H224.141V84.0938ZM246.836 81.6719L247.449 82.4623L247.455 82.4575L246.836 81.6719ZM246.836 65.8516L246.217 66.6372L246.223 66.642L246.836 65.8516ZM224.141 63.3906V62.3906H223.141V63.3906H224.141ZM218.594 112C218.123 112 217.946 111.875 217.869 111.79C217.775 111.688 217.641 111.436 217.641 110.852H215.641C215.641 111.7 215.831 112.522 216.389 113.136C216.963 113.767 217.763 114 218.594 114V112ZM217.641 110.852V59.1328H215.641V110.852H217.641ZM217.641 59.1328C217.641 58.5485 217.775 58.2969 217.869 58.1942C217.946 58.1095 218.123 57.9844 218.594 57.9844V55.9844C217.763 55.9844 216.963 56.2173 216.389 56.8488C215.831 57.4622 215.641 58.2849 215.641 59.1328H217.641ZM218.594 57.9844H235V55.9844H218.594V57.9844ZM235 57.9844C243.828 57.9844 249.441 59.4955 252.235 62.1957L253.625 60.7575C250.221 57.4681 243.881 55.9844 235 55.9844V57.9844ZM252.238 62.1987C255.099 64.9395 256.578 68.744 256.578 73.7422H258.578C258.578 68.3237 256.958 63.9511 253.621 60.7544L252.238 62.1987ZM256.578 73.7422C256.578 78.7401 255.099 82.5598 252.235 85.3278L253.625 86.766C256.958 83.5444 258.578 79.1609 258.578 73.7422H256.578ZM252.238 85.3248C250.858 86.6471 248.77 87.6989 245.882 88.4162C242.999 89.1323 239.378 89.5 235 89.5V91.5C239.476 91.5 243.271 91.1255 246.364 90.3572C249.452 89.5902 251.903 88.4154 253.621 86.769L252.238 85.3248ZM235 89.5H224.141V91.5H235V89.5ZM223.141 90.5V110.852H225.141V90.5H223.141ZM223.141 110.852C223.141 111.436 223.006 111.688 222.912 111.79C222.835 111.875 222.659 112 222.188 112V114C223.019 114 223.818 113.767 224.392 113.136C224.95 112.522 225.141 111.7 225.141 110.852H223.141ZM222.188 112H218.594V114H222.188V112ZM224.141 85.0938H235.117V83.0938H224.141V85.0938ZM235.117 85.0938C238.023 85.0938 240.505 84.8895 242.546 84.4676C244.579 84.0475 246.24 83.3986 247.449 82.4623L246.223 80.8815C245.348 81.5597 244.015 82.1218 242.141 82.509C240.277 82.8943 237.941 83.0938 235.117 83.0938V85.0938ZM247.455 82.4575C249.861 80.5628 250.961 77.5724 250.961 73.7422H248.961C248.961 77.2037 247.978 79.4997 246.217 80.8862L247.455 82.4575ZM250.961 73.7422C250.961 69.9132 249.861 66.9309 247.449 65.0611L246.223 66.642C247.977 68.0014 248.961 70.2795 248.961 73.7422H250.961ZM247.455 65.0659C246.246 64.1144 244.584 63.4544 242.549 63.0272C240.506 62.5982 238.024 62.3906 235.117 62.3906V64.3906C237.94 64.3906 240.275 64.5932 242.138 64.9845C244.01 65.3776 245.342 65.9481 246.217 66.6372L247.455 65.0659ZM235.117 62.3906H224.141V64.3906H235.117V62.3906ZM223.141 63.3906V84.0938H225.141V63.3906H223.141ZM273.438 78.4297H272.438V79.4297H273.438V78.4297ZM273.594 78.4297V79.4297H274.194L274.476 78.9003L273.594 78.4297ZM278.008 73.1172L278.585 73.9335L278.008 73.1172ZM287.852 71.75L287.462 72.671L287.474 72.6763L287.487 72.6812L287.852 71.75ZM288.516 72.9219L287.554 72.6472L287.553 72.6518L288.516 72.9219ZM287.617 76.125L286.654 75.8549L286.654 75.8574L287.617 76.125ZM286.602 76.6719L286.405 77.6525L286.414 77.6542L286.602 76.6719ZM276.484 80.5391L277.294 81.1254L277.297 81.1217L276.484 80.5391ZM268.398 112C267.967 112 267.826 111.893 267.787 111.853C267.748 111.814 267.641 111.674 267.641 111.242H265.641C265.641 111.982 265.826 112.721 266.373 113.268C266.92 113.814 267.658 114 268.398 114V112ZM267.641 111.242V73.7422H265.641V111.242H267.641ZM267.641 73.7422C267.641 73.3104 267.748 73.1702 267.787 73.1309C267.826 73.0916 267.967 72.9844 268.398 72.9844V70.9844C267.658 70.9844 266.92 71.1701 266.373 71.7167C265.826 72.2634 265.641 73.0021 265.641 73.7422H267.641ZM268.398 72.9844H271.68V70.9844H268.398V72.9844ZM271.68 72.9844C272.111 72.9844 272.252 73.0916 272.291 73.1309C272.33 73.1702 272.438 73.3104 272.438 73.7422H274.438C274.438 73.0021 274.252 72.2634 273.705 71.7167C273.159 71.1701 272.42 70.9844 271.68 70.9844V72.9844ZM272.438 73.7422V78.4297H274.438V73.7422H272.438ZM273.438 79.4297H273.594V77.4297H273.438V79.4297ZM274.476 78.9003C275.673 76.6565 277.05 75.0198 278.585 73.9335L277.43 72.3009C275.58 73.6104 274.015 75.5154 272.711 77.9591L274.476 78.9003ZM278.585 73.9335C280.075 72.8791 281.971 72.3203 284.336 72.3203V70.3203C281.649 70.3203 279.326 70.9594 277.43 72.3009L278.585 73.9335ZM284.336 72.3203C285.996 72.3203 286.987 72.4702 287.462 72.671L288.241 70.829C287.362 70.4569 286.009 70.3203 284.336 70.3203V72.3203ZM287.487 72.6812C287.571 72.714 287.611 72.7405 287.624 72.7505C287.635 72.7588 287.617 72.7479 287.597 72.7118C287.587 72.6945 287.579 72.6754 287.573 72.6559C287.567 72.6366 287.565 72.6207 287.564 72.6103C287.563 72.5901 287.568 72.5993 287.554 72.6472L289.477 73.1966C289.608 72.7379 289.613 72.2127 289.337 71.7257C289.073 71.26 288.639 70.9843 288.216 70.8188L287.487 72.6812ZM287.553 72.6518L286.654 75.8549L288.58 76.3951L289.478 73.1919L287.553 72.6518ZM286.654 75.8574C286.646 75.8843 286.646 75.8709 286.669 75.8385C286.695 75.8024 286.737 75.7622 286.792 75.7328C286.898 75.6756 286.935 75.7174 286.789 75.6895L286.414 77.6542C286.815 77.7305 287.295 77.7333 287.74 77.4938C288.209 77.2412 288.463 76.8157 288.581 76.3926L286.654 75.8574ZM286.798 75.6913C285.831 75.498 284.906 75.3984 284.023 75.3984V77.3984C284.756 77.3984 285.549 77.4812 286.405 77.6525L286.798 75.6913ZM284.023 75.3984C280.614 75.3984 277.814 76.9689 275.672 79.9564L277.297 81.1217C279.113 78.5884 281.34 77.3984 284.023 77.3984V75.3984ZM275.674 79.9527C273.531 82.9142 272.516 86.8825 272.516 91.75H274.516C274.516 87.1384 275.48 83.6327 277.294 81.1254L275.674 79.9527ZM272.516 91.75V111.242H274.516V91.75H272.516ZM272.516 111.242C272.516 111.674 272.408 111.814 272.369 111.853C272.33 111.893 272.19 112 271.758 112V114C272.498 114 273.237 113.814 273.783 113.268C274.33 112.721 274.516 111.982 274.516 111.242H272.516ZM271.758 112H268.398V114H271.758V112ZM297.461 77.3359L296.685 76.7057L296.684 76.7063L297.461 77.3359ZM325.938 77.3359L325.159 77.9631L325.163 77.9686L325.938 77.3359ZM325.938 107.688L325.161 107.057L325.161 107.058L325.938 107.688ZM297.461 107.688L296.682 108.315L296.687 108.32L297.461 107.688ZM293.617 92.4922C293.617 86.5555 295.18 81.7391 298.238 77.9656L296.684 76.7063C293.284 80.9016 291.617 86.1892 291.617 92.4922H293.617ZM298.237 77.9661C301.263 74.2391 305.7 72.3203 311.719 72.3203V70.3203C305.237 70.3203 300.17 72.412 296.685 76.7057L298.237 77.9661ZM311.719 72.3203C317.738 72.3203 322.16 74.239 325.159 77.9631L326.716 76.7088C323.257 72.412 318.2 70.3203 311.719 70.3203V72.3203ZM325.163 77.9686C328.246 81.7421 329.82 86.5574 329.82 92.4922H331.82C331.82 86.1873 330.139 80.8985 326.712 76.7033L325.163 77.9686ZM329.82 92.4922C329.82 98.4267 328.246 103.257 325.161 107.057L326.714 108.318C330.139 104.098 331.82 98.7973 331.82 92.4922H329.82ZM325.161 107.058C322.163 110.757 317.74 112.664 311.719 112.664V114.664C318.198 114.664 323.254 112.587 326.714 108.317L325.161 107.058ZM311.719 112.664C305.698 112.664 301.26 110.757 298.235 107.055L296.687 108.32C300.172 112.587 305.24 114.664 311.719 114.664V112.664ZM298.24 107.06C295.18 103.26 293.617 98.4286 293.617 92.4922H291.617C291.617 98.7954 293.284 104.095 296.682 108.315L298.24 107.06ZM298.883 92.4922C298.883 98.0612 299.978 102.386 302.352 105.276L303.898 104.006C301.949 101.635 300.883 97.8606 300.883 92.4922H298.883ZM302.352 105.276C304.714 108.149 307.868 109.586 311.719 109.586V107.586C308.434 107.586 305.859 106.392 303.898 104.006L302.352 105.276ZM311.719 109.586C315.569 109.586 318.723 108.149 321.085 105.276L319.54 104.006C317.579 106.392 315.004 107.586 311.719 107.586V109.586ZM321.085 105.276C323.46 102.386 324.555 98.0612 324.555 92.4922H322.555C322.555 97.8606 321.488 101.635 319.54 104.006L321.085 105.276ZM324.555 92.4922C324.555 86.9231 323.46 82.5983 321.085 79.7088L319.54 80.9787C321.488 83.3496 322.555 87.1237 322.555 92.4922H324.555ZM321.085 79.7088C318.723 76.835 315.569 75.3984 311.719 75.3984V77.3984C315.004 77.3984 317.579 78.592 319.54 80.9787L321.085 79.7088ZM311.719 75.3984C307.868 75.3984 304.714 76.835 302.352 79.7088L303.898 80.9787C305.859 78.592 308.434 77.3984 311.719 77.3984V75.3984ZM302.352 79.7088C299.978 82.5983 298.883 86.9231 298.883 92.4922H300.883C300.883 87.1237 301.949 83.3496 303.898 80.9787L302.352 79.7088ZM341.523 77.7266L342.366 78.2644L342.368 78.2621L341.523 77.7266ZM360.586 72.8047L361.068 71.9287L360.586 72.8047ZM365.43 76.8672L364.661 77.5074L364.961 77.8672H365.43V76.8672ZM365.508 76.8672V77.8672H366.577L366.506 76.8007L365.508 76.8672ZM365.742 111.242L366.74 111.176L366.739 111.167L365.742 111.242ZM365.508 108.117L366.505 108.042L366.436 107.117H365.508V108.117ZM365.43 108.117V107.117H364.961L364.661 107.477L365.43 108.117ZM341.523 107.297L340.679 107.832L340.68 107.835L341.523 107.297ZM347.188 104.133L346.312 104.617L346.316 104.622L347.188 104.133ZM362.617 105.734L361.9 105.037L361.9 105.037L362.617 105.734ZM362.617 79.2891L361.896 79.9815L361.905 79.9913L362.617 79.2891ZM347.188 80.8516L346.315 80.362L346.312 80.3679L347.188 80.8516ZM338.461 92.4922C338.461 87.0618 339.772 82.3309 342.366 78.2644L340.68 77.1887C337.858 81.6118 336.461 86.7247 336.461 92.4922H338.461ZM342.368 78.2621C344.886 74.2908 348.52 72.3203 353.398 72.3203V70.3203C347.86 70.3203 343.577 72.6206 340.679 77.191L342.368 78.2621ZM353.398 72.3203C356.297 72.3203 358.507 72.8013 360.104 73.6806L361.068 71.9287C359.071 70.8289 356.49 70.3203 353.398 70.3203V72.3203ZM360.104 73.6806C361.782 74.6049 363.302 75.8756 364.661 77.5074L366.198 76.227C364.693 74.4212 362.984 72.9837 361.068 71.9287L360.104 73.6806ZM365.43 77.8672H365.508V75.8672H365.43V77.8672ZM366.506 76.8007C366.455 76.0422 366.43 75.2702 366.43 74.4844H364.43C364.43 75.3132 364.456 76.1296 364.51 76.9337L366.506 76.8007ZM366.43 74.4844V57.1016H364.43V74.4844H366.43ZM366.43 57.1016C366.43 56.6698 366.537 56.5296 366.576 56.4903C366.616 56.451 366.756 56.3438 367.188 56.3438V54.3438C366.447 54.3438 365.709 54.5294 365.162 55.0761C364.615 55.6227 364.43 56.3615 364.43 57.1016H366.43ZM367.188 56.3438H370.547V54.3438H367.188V56.3438ZM370.547 56.3438C370.979 56.3438 371.119 56.451 371.158 56.4903C371.197 56.5296 371.305 56.6698 371.305 57.1016H373.305C373.305 56.3615 373.119 55.6227 372.572 55.0761C372.026 54.5294 371.287 54.3438 370.547 54.3438V56.3438ZM371.305 57.1016V111.242H373.305V57.1016H371.305ZM371.305 111.242C371.305 111.674 371.197 111.814 371.158 111.853C371.119 111.893 370.979 112 370.547 112V114C371.287 114 372.026 113.814 372.572 113.268C373.119 112.721 373.305 111.982 373.305 111.242H371.305ZM370.547 112H367.266V114H370.547V112ZM367.266 112C367.021 112 366.962 111.934 366.937 111.906C366.883 111.843 366.772 111.65 366.74 111.176L364.744 111.309C364.791 112.006 364.973 112.693 365.426 113.215C365.909 113.773 366.573 114 367.266 114V112ZM366.739 111.167L366.505 108.042L364.511 108.192L364.745 111.317L366.739 111.167ZM365.508 107.117H365.43V109.117H365.508V107.117ZM364.661 107.477C363.302 109.109 361.782 110.379 360.104 111.304L361.068 113.056C362.984 112.001 364.693 110.563 366.198 108.757L364.661 107.477ZM360.104 111.304C358.507 112.183 356.297 112.664 353.398 112.664V114.664C356.49 114.664 359.071 114.156 361.068 113.056L360.104 111.304ZM353.398 112.664C348.517 112.664 344.884 110.704 342.366 106.759L340.68 107.835C343.58 112.379 347.863 114.664 353.398 114.664V112.664ZM342.368 106.761C339.772 102.668 338.461 97.9225 338.461 92.4922H336.461C336.461 98.2598 337.858 103.385 340.679 107.832L342.368 106.761ZM343.727 92.4922C343.727 97.3872 344.563 101.451 346.312 104.617L348.063 103.649C346.531 100.877 345.727 97.1805 345.727 92.4922H343.727ZM346.316 104.622C348.191 107.963 351.376 109.586 355.625 109.586V107.586C351.958 107.586 349.517 106.24 348.059 103.643L346.316 104.622ZM355.625 109.586C358.689 109.586 361.284 108.539 363.334 106.432L361.9 105.037C360.252 106.732 358.186 107.586 355.625 107.586V109.586ZM363.334 106.432C365.459 104.248 366.43 101.034 366.43 96.9844H364.43C364.43 100.748 363.526 103.367 361.9 105.037L363.334 106.432ZM366.43 96.9844V88H364.43V96.9844H366.43ZM366.43 88C366.43 83.9521 365.459 80.7465 363.329 78.5868L361.905 79.9913C363.525 81.6337 364.43 84.2354 364.43 88H366.43ZM363.339 78.5967C361.29 76.4617 358.694 75.3984 355.625 75.3984V77.3984C358.181 77.3984 360.246 78.2623 361.896 79.9814L363.339 78.5967ZM355.625 75.3984C351.376 75.3984 348.191 77.021 346.316 80.362L348.059 81.3411C349.517 78.7447 351.958 77.3984 355.625 77.3984V75.3984ZM346.312 80.3679C344.563 83.5333 343.727 87.5972 343.727 92.4922H345.727C345.727 87.8038 346.531 84.1073 348.063 81.3353L346.312 80.3679ZM392.773 106.555L392.141 107.33L392.149 107.336L392.773 106.555ZM406.602 105.578L407.356 106.235L407.36 106.23L406.602 105.578ZM409.297 108.117H410.297V107.117H409.297V108.117ZM409.141 108.117V107.117H408.696L408.398 107.447L409.141 108.117ZM386.523 109.68L385.737 110.298L385.74 110.302L386.523 109.68ZM384.359 98.7031V73.7422H382.359V98.7031H384.359ZM384.359 73.7422C384.359 73.3104 384.467 73.1702 384.506 73.1309C384.545 73.0916 384.685 72.9844 385.117 72.9844V70.9844C384.377 70.9844 383.638 71.1701 383.092 71.7167C382.545 72.2634 382.359 73.0021 382.359 73.7422H384.359ZM385.117 72.9844H388.477V70.9844H385.117V72.9844ZM388.477 72.9844C388.908 72.9844 389.049 73.0916 389.088 73.1309C389.127 73.1702 389.234 73.3104 389.234 73.7422H391.234C391.234 73.0021 391.049 72.2634 390.502 71.7167C389.955 71.1701 389.217 70.9844 388.477 70.9844V72.9844ZM389.234 73.7422V96.8281H391.234V73.7422H389.234ZM389.234 96.8281C389.234 99.426 389.449 101.606 389.902 103.34C390.351 105.064 391.064 106.451 392.141 107.33L393.405 105.78C392.79 105.278 392.233 104.354 391.837 102.835C391.443 101.328 391.234 99.3345 391.234 96.8281H389.234ZM392.149 107.336C394.045 108.853 396.372 109.586 399.062 109.586V107.586C396.753 107.586 394.887 106.965 393.398 105.774L392.149 107.336ZM399.062 109.586C402.559 109.586 405.378 108.508 407.356 106.235L405.847 104.922C404.336 106.659 402.128 107.586 399.062 107.586V109.586ZM407.36 106.23C409.346 103.918 410.219 100.147 410.219 95.1875H408.219C408.219 100.02 407.347 103.176 405.843 104.927L407.36 106.23ZM410.219 95.1875V73.7422H408.219V95.1875H410.219ZM410.219 73.7422C410.219 73.3104 410.326 73.1702 410.365 73.1309C410.405 73.0916 410.545 72.9844 410.977 72.9844V70.9844C410.236 70.9844 409.498 71.1701 408.951 71.7167C408.404 72.2634 408.219 73.0021 408.219 73.7422H410.219ZM410.977 72.9844H414.336V70.9844H410.977V72.9844ZM414.336 72.9844C414.768 72.9844 414.908 73.0916 414.947 73.1309C414.986 73.1702 415.094 73.3104 415.094 73.7422H417.094C417.094 73.0021 416.908 72.2634 416.361 71.7167C415.815 71.1701 415.076 70.9844 414.336 70.9844V72.9844ZM415.094 73.7422V111.242H417.094V73.7422H415.094ZM415.094 111.242C415.094 111.674 414.986 111.814 414.947 111.853C414.908 111.893 414.768 112 414.336 112V114C415.076 114 415.815 113.814 416.361 113.268C416.908 112.721 417.094 111.982 417.094 111.242H415.094ZM414.336 112H411.055V114H414.336V112ZM411.055 112C410.623 112 410.483 111.893 410.443 111.853C410.404 111.814 410.297 111.674 410.297 111.242H408.297C408.297 111.982 408.483 112.721 409.029 113.268C409.576 113.814 410.315 114 411.055 114V112ZM410.297 111.242V108.117H408.297V111.242H410.297ZM409.297 107.117H409.141V109.117H409.297V107.117ZM408.398 107.447C406.78 109.24 405.062 110.545 403.249 111.391L404.095 113.203C406.188 112.226 408.116 110.745 409.883 108.787L408.398 107.447ZM403.249 111.391C401.462 112.225 399.233 112.664 396.523 112.664V114.664C399.439 114.664 401.975 114.192 404.095 113.203L403.249 111.391ZM396.523 112.664C392.159 112.664 389.166 111.399 387.307 109.058L385.74 110.302C388.1 113.273 391.773 114.664 396.523 114.664V112.664ZM387.309 109.062C385.381 106.609 384.359 103.194 384.359 98.7031H382.359C382.359 103.483 383.447 107.385 385.737 110.298L387.309 109.062ZM429.492 77.3359L428.696 76.731L428.695 76.7318L429.492 77.3359ZM453.086 73.5859L452.522 74.412L452.533 74.4195L453.086 73.5859ZM457.93 78.1562L457.085 78.6913L457.086 78.6931L457.93 78.1562ZM457.578 80.2266L458.124 81.0648L458.133 81.0586L457.578 80.2266ZM455.117 81.8281L454.572 80.99L454.558 80.9992L454.544 81.0089L455.117 81.8281ZM452.773 80.7734L453.621 80.2434L453.619 80.2401L452.773 80.7734ZM449.57 77.6875L449.034 78.5319L449.042 78.5364L449.57 77.6875ZM450.078 106.945L450.658 107.76L450.667 107.753L450.078 106.945ZM453.438 103.312L452.562 102.828L452.558 102.837L453.438 103.312ZM455.742 102.258L455.224 103.113L455.23 103.116L455.742 102.258ZM458.359 103.82L458.874 102.963L458.872 102.962L458.359 103.82ZM458.711 105.93L457.847 105.426L457.846 105.427L458.711 105.93ZM454.258 110.656L454.916 111.409L454.917 111.408L454.258 110.656ZM429.492 107.688L428.693 108.289L428.698 108.295L429.492 107.688ZM425.961 92.4922C425.961 86.5406 427.427 81.7146 430.289 77.9401L428.695 76.7318C425.515 80.926 423.961 86.2042 423.961 92.4922H425.961ZM430.288 77.9409C433.101 74.2391 437.417 72.3203 443.438 72.3203V70.3203C436.958 70.3203 431.977 72.4119 428.696 76.731L430.288 77.9409ZM443.438 72.3203C447.562 72.3203 450.545 73.0629 452.522 74.412L453.65 72.7599C451.2 71.0881 447.751 70.3203 443.438 70.3203V72.3203ZM452.533 74.4195C454.705 75.8585 456.197 77.289 457.085 78.6913L458.775 77.6212C457.683 75.8985 455.946 74.2822 453.638 72.7524L452.533 74.4195ZM457.086 78.6931C457.286 79.0075 457.268 79.1412 457.266 79.1509C457.265 79.1565 457.262 79.1735 457.236 79.2084C457.207 79.2477 457.146 79.3131 457.023 79.3945L458.133 81.0586C458.671 80.6997 459.119 80.1856 459.238 79.4858C459.353 78.8055 459.12 78.1643 458.773 77.6194L457.086 78.6931ZM457.033 79.3884L454.572 80.99L455.663 82.6663L458.124 81.0647L457.033 79.3884ZM454.544 81.0089C454.454 81.0717 454.41 81.0772 454.407 81.0775C454.405 81.0779 454.403 81.0779 454.399 81.0773C454.394 81.0765 454.38 81.0737 454.356 81.0627C454.234 81.0079 453.974 80.8078 453.621 80.2434L451.925 81.3034C452.354 81.989 452.876 82.5898 453.535 82.8865C454.288 83.2256 455.051 83.0954 455.691 82.6474L454.544 81.0089ZM453.619 80.2401C452.772 78.8967 451.588 77.766 450.099 76.8386L449.042 78.5364C450.313 79.3277 451.264 80.2543 451.928 81.3067L453.619 80.2401ZM450.106 76.8432C448.515 75.8333 446.243 75.3984 443.438 75.3984V77.3984C446.101 77.3984 447.918 77.823 449.034 78.5318L450.106 76.8432ZM443.438 75.3984C439.586 75.3984 436.514 76.8382 434.353 79.7476L435.959 80.9399C437.705 78.5889 440.154 77.3984 443.438 77.3984V75.3984ZM434.353 79.7476C432.212 82.6317 431.227 86.9393 431.227 92.4922H433.227C433.227 87.1076 434.195 83.3162 435.959 80.9399L434.353 79.7476ZM431.227 92.4922C431.227 98.0451 432.212 102.353 434.353 105.237L435.959 104.044C434.195 101.668 433.227 97.8768 433.227 92.4922H431.227ZM434.353 105.237C436.514 108.146 439.586 109.586 443.438 109.586V107.586C440.154 107.586 437.705 106.395 435.959 104.044L434.353 105.237ZM443.438 109.586C446.432 109.586 448.884 109.023 450.658 107.76L449.498 106.131C448.2 107.055 446.224 107.586 443.438 107.586V109.586ZM450.667 107.753C452.291 106.57 453.526 105.253 454.317 103.788L452.558 102.837C451.943 103.976 450.938 105.081 449.489 106.137L450.667 107.753ZM454.313 103.797C454.609 103.26 454.839 103.085 454.938 103.04C454.973 103.024 454.992 103.023 455.011 103.025C455.038 103.028 455.107 103.042 455.224 103.113L456.26 101.403C455.609 101.008 454.851 100.88 454.105 101.222C453.436 101.528 452.943 102.141 452.562 102.828L454.313 103.797ZM455.23 103.116L457.847 104.679L458.872 102.962L456.255 101.399L455.23 103.116ZM457.845 104.678C457.957 104.745 458.007 104.798 458.027 104.824C458.044 104.846 458.045 104.855 458.047 104.864C458.051 104.891 458.062 105.058 457.847 105.426L459.575 106.434C459.907 105.864 460.132 105.21 460.02 104.535C459.9 103.818 459.441 103.303 458.874 102.963L457.845 104.678ZM457.846 105.427C457.286 106.391 455.916 107.873 453.599 109.904L454.917 111.408C457.235 109.377 458.834 107.708 459.575 106.432L457.846 105.427ZM453.599 109.904C451.573 111.676 448.257 112.664 443.438 112.664V114.664C448.461 114.664 452.359 113.647 454.916 111.409L453.599 109.904ZM443.438 112.664C437.414 112.664 433.098 110.757 430.287 107.08L428.698 108.295C431.98 112.587 436.961 114.664 443.438 114.664V112.664ZM430.291 107.086C427.427 103.284 425.961 98.4436 425.961 92.4922H423.961C423.961 98.7804 425.515 104.07 428.693 108.289L430.291 107.086ZM469.883 71.9844V72.9844H470.883V71.9844H469.883ZM470.273 66.9844L471.148 67.47L471.149 67.4671L470.273 66.9844ZM473.008 62.0234L473.884 62.5062L473.887 62.5005L473.008 62.0234ZM476.758 71.9844H475.758V72.9844H476.758V71.9844ZM476.758 77.1406V76.1406H475.758V77.1406H476.758ZM477.969 107.375L477.251 108.071L477.262 108.082L477.273 108.093L477.969 107.375ZM484.102 107.805L483.717 106.882L483.71 106.885L484.102 107.805ZM487.773 106.828L488.693 106.434L488.691 106.429L487.773 106.828ZM489.062 109.836L489.991 109.465L489.986 109.453L489.982 109.442L489.062 109.836ZM488.594 111.086L489.102 111.947L489.108 111.943L488.594 111.086ZM484.141 112.844L484.41 113.807L484.422 113.803L484.141 112.844ZM472.031 110.734L471.225 111.326L471.23 111.333L472.031 110.734ZM469.883 77.1406H470.883V76.1406H469.883V77.1406ZM465.273 76.1406C464.79 76.1406 464.611 76.0418 464.569 76.0095C464.556 75.9996 464.551 75.9934 464.545 75.9777C464.535 75.9559 464.516 75.8956 464.516 75.7734H462.516C462.516 76.4598 462.749 77.1277 463.341 77.5882C463.885 78.0116 464.585 78.1406 465.273 78.1406V76.1406ZM464.516 75.7734V73.3516H462.516V75.7734H464.516ZM464.516 73.3516C464.516 73.2294 464.535 73.1691 464.545 73.1473C464.551 73.1316 464.556 73.1254 464.569 73.1155C464.611 73.0832 464.79 72.9844 465.273 72.9844V70.9844C464.585 70.9844 463.885 71.1134 463.341 71.5368C462.749 71.9973 462.516 72.6652 462.516 73.3516H464.516ZM465.273 72.9844H469.883V70.9844H465.273V72.9844ZM470.883 71.9844V68.4688H468.883V71.9844H470.883ZM470.883 68.4688C470.883 68.123 470.967 67.7948 471.148 67.47L469.399 66.4987C469.059 67.1115 468.883 67.7728 468.883 68.4688H470.883ZM471.149 67.4671L473.884 62.5061L472.132 61.5407L469.398 66.5017L471.149 67.4671ZM473.887 62.5005C474.119 62.0719 474.302 61.8061 474.43 61.6611C474.494 61.5894 474.519 61.5758 474.504 61.5854C474.489 61.5951 474.388 61.6562 474.219 61.6562V59.6562C473.6 59.6562 473.164 60.0748 472.933 60.335C472.658 60.6457 472.391 61.0635 472.129 61.5463L473.887 62.5005ZM474.219 61.6562H475.586V59.6562H474.219V61.6562ZM475.586 61.6562C475.686 61.6562 475.73 61.6711 475.736 61.6737C475.737 61.6739 475.72 61.6659 475.706 61.6488C475.683 61.6219 475.758 61.6874 475.758 62.0234H477.758C477.758 61.4481 477.638 60.8299 477.224 60.3473C476.785 59.8351 476.174 59.6562 475.586 59.6562V61.6562ZM475.758 62.0234V71.9844H477.758V62.0234H475.758ZM476.758 72.9844H485.078V70.9844H476.758V72.9844ZM485.078 72.9844C485.562 72.9844 485.741 73.0832 485.783 73.1155C485.795 73.1254 485.8 73.1316 485.807 73.1473C485.816 73.1691 485.836 73.2294 485.836 73.3516H487.836C487.836 72.6652 487.603 71.9973 487.01 71.5368C486.466 71.1134 485.766 70.9844 485.078 70.9844V72.9844ZM485.836 73.3516V75.7734H487.836V73.3516H485.836ZM485.836 75.7734C485.836 75.8956 485.816 75.9559 485.807 75.9777C485.8 75.9934 485.795 75.9996 485.783 76.0095C485.741 76.0418 485.562 76.1406 485.078 76.1406V78.1406C485.766 78.1406 486.466 78.0116 487.01 77.5882C487.603 77.1277 487.836 76.4598 487.836 75.7734H485.836ZM485.078 76.1406H476.758V78.1406H485.078V76.1406ZM475.758 77.1406V102.023H477.758V77.1406H475.758ZM475.758 102.023C475.758 103.432 475.861 104.642 476.085 105.633C476.306 106.61 476.666 107.467 477.251 108.071L478.687 106.679C478.465 106.45 478.219 105.998 478.036 105.191C477.856 104.398 477.758 103.349 477.758 102.023H475.758ZM477.273 108.093C478.29 109.079 479.528 109.586 480.938 109.586V107.586C480.055 107.586 479.314 107.286 478.665 106.657L477.273 108.093ZM480.938 109.586C482.008 109.586 483.202 109.274 484.493 108.725L483.71 106.885C482.554 107.377 481.638 107.586 480.938 107.586V109.586ZM484.486 108.728C485.741 108.205 486.71 107.72 487.294 107.266L486.066 105.687C485.712 105.963 484.962 106.363 483.717 106.882L484.486 108.728ZM487.294 107.266C487.346 107.225 487.346 107.237 487.296 107.252C487.234 107.27 487.124 107.283 486.999 107.243C486.879 107.205 486.818 107.141 486.805 107.127C486.796 107.116 486.818 107.139 486.856 107.227L488.691 106.429C488.523 106.044 488.209 105.531 487.611 105.339C486.969 105.133 486.412 105.418 486.066 105.687L487.294 107.266ZM486.854 107.222L488.143 110.23L489.982 109.442L488.693 106.434L486.854 107.222ZM488.134 110.207C488.153 110.256 488.152 110.272 488.152 110.263C488.152 110.257 488.152 110.247 488.154 110.232C488.156 110.218 488.16 110.203 488.165 110.188C488.171 110.173 488.177 110.162 488.181 110.155C488.185 110.149 488.187 110.148 488.183 110.152C488.175 110.16 488.146 110.188 488.079 110.228L489.108 111.943C489.492 111.713 489.856 111.376 490.038 110.89C490.225 110.392 490.163 109.894 489.991 109.465L488.134 110.207ZM488.086 110.225C487.175 110.762 485.781 111.32 483.859 111.884L484.422 113.803C486.406 113.221 487.982 112.608 489.102 111.947L488.086 110.225ZM483.871 111.881C482.002 112.404 480.14 112.664 478.281 112.664V114.664C480.329 114.664 482.373 114.377 484.41 113.807L483.871 111.881ZM478.281 112.664C475.848 112.664 474.079 111.806 472.833 110.136L471.23 111.333C472.9 113.569 475.298 114.664 478.281 114.664V112.664ZM472.838 110.143C471.578 108.425 470.883 105.904 470.883 102.453H468.883C468.883 106.137 469.62 109.137 471.225 111.326L472.838 110.143ZM470.883 102.453V77.1406H468.883V102.453H470.883ZM469.883 76.1406H465.273V78.1406H469.883V76.1406ZM517.188 146.594H516.188V147.594H517.188V146.594ZM511.641 152C511.17 152 510.993 151.875 510.916 151.79C510.822 151.688 510.688 151.436 510.688 150.852H508.688C508.688 151.7 508.878 152.522 509.436 153.136C510.01 153.767 510.81 154 511.641 154V152ZM510.688 150.852V99.1328H508.688V150.852H510.688ZM510.688 99.1328C510.688 98.5485 510.822 98.2969 510.916 98.1942C510.993 98.1095 511.17 97.9844 511.641 97.9844V95.9844C510.81 95.9844 510.01 96.2173 509.436 96.8488C508.878 97.4622 508.688 98.2849 508.688 99.1328H510.688ZM511.641 97.9844H515.234V95.9844H511.641V97.9844ZM515.234 97.9844C515.705 97.9844 515.882 98.1095 515.959 98.1942C516.053 98.2969 516.188 98.5485 516.188 99.1328H518.188C518.188 98.2849 517.997 97.4622 517.439 96.8488C516.865 96.2173 516.065 95.9844 515.234 95.9844V97.9844ZM516.188 99.1328V146.594H518.188V99.1328H516.188ZM517.188 147.594H543.086V145.594H517.188V147.594ZM543.086 147.594C543.691 147.594 543.959 147.722 544.064 147.807C544.13 147.861 544.234 147.979 544.234 148.352H546.234C546.234 147.553 545.98 146.791 545.331 146.259C544.719 145.759 543.913 145.594 543.086 145.594V147.594ZM544.234 148.352V151.242H546.234V148.352H544.234ZM544.234 151.242C544.234 151.615 544.13 151.732 544.064 151.787C543.959 151.872 543.691 152 543.086 152V154C543.913 154 544.719 153.835 545.331 153.335C545.98 152.803 546.234 152.041 546.234 151.242H544.234ZM543.086 152H511.641V154H543.086V152ZM554.727 152C554.295 152 554.155 151.893 554.115 151.853C554.076 151.814 553.969 151.674 553.969 151.242H551.969C551.969 151.982 552.154 152.721 552.701 153.268C553.248 153.814 553.986 154 554.727 154V152ZM553.969 151.242V113.742H551.969V151.242H553.969ZM553.969 113.742C553.969 113.31 554.076 113.17 554.115 113.131C554.155 113.092 554.295 112.984 554.727 112.984V110.984C553.986 110.984 553.248 111.17 552.701 111.717C552.154 112.263 551.969 113.002 551.969 113.742H553.969ZM554.727 112.984H558.086V110.984H554.727V112.984ZM558.086 112.984C558.518 112.984 558.658 113.092 558.697 113.131C558.736 113.17 558.844 113.31 558.844 113.742H560.844C560.844 113.002 560.658 112.263 560.111 111.717C559.565 111.17 558.826 110.984 558.086 110.984V112.984ZM558.844 113.742V151.242H560.844V113.742H558.844ZM558.844 151.242C558.844 151.674 558.736 151.814 558.697 151.853C558.658 151.893 558.518 152 558.086 152V154C558.826 154 559.565 153.814 560.111 153.268C560.658 152.721 560.844 151.982 560.844 151.242H558.844ZM558.086 152H554.727V154H558.086V152ZM554.727 103.562C554.295 103.562 554.155 103.455 554.115 103.416C554.076 103.377 553.969 103.236 553.969 102.805H551.969C551.969 103.545 552.154 104.284 552.701 104.83C553.248 105.377 553.986 105.562 554.727 105.562V103.562ZM553.969 102.805V99.4453H551.969V102.805H553.969ZM553.969 99.4453C553.969 99.0135 554.076 98.8734 554.115 98.8341C554.155 98.7948 554.295 98.6875 554.727 98.6875V96.6875C553.986 96.6875 553.248 96.8732 552.701 97.4198C552.154 97.9665 551.969 98.7052 551.969 99.4453H553.969ZM554.727 98.6875H558.086V96.6875H554.727V98.6875ZM558.086 98.6875C558.518 98.6875 558.658 98.7948 558.697 98.8341C558.736 98.8734 558.844 99.0135 558.844 99.4453H560.844C560.844 98.7052 560.658 97.9665 560.111 97.4198C559.565 96.8732 558.826 96.6875 558.086 96.6875V98.6875ZM558.844 99.4453V102.805H560.844V99.4453H558.844ZM558.844 102.805C558.844 103.236 558.736 103.377 558.697 103.416C558.658 103.455 558.518 103.562 558.086 103.562V105.562C558.826 105.562 559.565 105.377 560.111 104.83C560.658 104.284 560.844 103.545 560.844 102.805H558.844ZM558.086 103.562H554.727V105.562H558.086V103.562ZM569.336 149.172L570.031 148.453L570.025 148.447L570.019 148.442L569.336 149.172ZM568.828 147.062L569.64 147.647L569.642 147.644L568.828 147.062ZM570.586 144.602L569.779 144.01L569.772 144.02L570.586 144.602ZM573.125 144.719L572.516 145.512L572.519 145.514L573.125 144.719ZM578.242 147.531L577.891 148.468L577.895 148.469L578.242 147.531ZM588.555 148.078L588.844 149.035L588.854 149.032L588.864 149.029L588.555 148.078ZM591.484 146.086L590.738 145.42L590.733 145.426L590.728 145.432L591.484 146.086ZM592.148 139.562L591.243 139.987L591.248 139.998L591.254 140.01L592.148 139.562ZM590.273 137.57L589.743 138.418L589.759 138.428L589.774 138.437L590.273 137.57ZM587.812 136.359L587.463 137.296L587.471 137.299L587.478 137.302L587.812 136.359ZM583.828 135.148L583.576 136.116L583.588 136.119L583.599 136.122L583.828 135.148ZM578.672 133.625L578.974 132.672L578.967 132.67L578.672 133.625ZM574.609 131.75L574.063 132.587L574.069 132.591L574.075 132.595L574.609 131.75ZM571.25 128.391L570.418 128.945L570.425 128.956L571.25 128.391ZM577.93 112.336L578.2 113.299L578.21 113.296L577.93 112.336ZM592.461 112.453L592.1 113.386L592.108 113.389L592.115 113.391L592.461 112.453ZM597.578 115.07L598.162 114.258L598.157 114.255L597.578 115.07ZM597.93 117.141L597.136 116.532L597.13 116.541L597.93 117.141ZM596.172 119.484L595.372 118.884L595.367 118.891L595.362 118.898L596.172 119.484ZM593.633 119.406L594.209 118.589L594.208 118.588L593.633 119.406ZM577.148 124.602L576.218 124.967L576.222 124.979L577.148 124.602ZM582.031 128L582.285 127.033L582.282 127.032L582.031 128ZM588.008 129.562L587.755 130.53L587.759 130.531L588.008 129.562ZM592.93 131.281L593.352 130.375L593.351 130.374L592.93 131.281ZM597.305 134.211L596.58 134.9L596.589 134.909L597.305 134.211ZM599.453 137.688L598.499 137.986L598.5 137.992L599.453 137.688ZM597.539 148.859L596.783 148.205L596.778 148.211L597.539 148.859ZM592.031 152.727L592.325 153.682L592.336 153.679L592.031 152.727ZM574.688 152.023L574.312 152.95L574.322 152.954L574.688 152.023ZM570.019 148.442C569.688 148.132 569.596 147.93 569.576 147.844C569.567 147.809 569.569 147.791 569.573 147.776C569.576 147.759 569.59 147.716 569.64 147.647L568.017 146.478C567.633 147.011 567.471 147.644 567.631 148.312C567.78 148.93 568.177 149.457 568.653 149.902L570.019 148.442ZM569.642 147.644L571.4 145.183L569.772 144.02L568.014 146.481L569.642 147.644ZM571.392 145.193C571.464 145.095 571.514 145.064 571.53 145.056C571.542 145.05 571.559 145.042 571.604 145.044C571.728 145.05 572.021 145.132 572.516 145.512L573.734 143.925C573.109 143.446 572.419 143.079 571.697 143.046C570.886 143.009 570.231 143.395 569.78 144.01L571.392 145.193ZM572.519 145.514C574.136 146.747 575.928 147.731 577.891 148.468L578.593 146.595C576.807 145.925 575.187 145.034 573.731 143.924L572.519 145.514ZM577.895 148.469C579.927 149.22 582.209 149.586 584.727 149.586V147.586C582.401 147.586 580.36 147.248 578.589 146.593L577.895 148.469ZM584.727 149.586C586.236 149.586 587.612 149.408 588.844 149.035L588.265 147.121C587.258 147.426 586.082 147.586 584.727 147.586V149.586ZM588.864 149.029C590.171 148.603 591.298 147.83 592.241 146.74L590.728 145.432C590.004 146.269 589.178 146.824 588.245 147.127L588.864 149.029ZM592.231 146.752C593.291 145.562 593.773 144.015 593.773 142.219H591.773C591.773 143.652 591.396 144.683 590.738 145.42L592.231 146.752ZM593.773 142.219C593.773 141.127 593.529 140.088 593.043 139.115L591.254 140.01C591.601 140.703 591.773 141.435 591.773 142.219H593.773ZM593.054 139.138C592.569 138.105 591.795 137.292 590.772 136.704L589.774 138.437C590.471 138.838 590.946 139.354 591.243 139.987L593.054 139.138ZM590.803 136.722C589.917 136.169 589.032 135.731 588.147 135.417L587.478 137.302C588.208 137.561 588.963 137.93 589.743 138.418L590.803 136.722ZM588.162 135.422C586.796 134.913 585.428 134.497 584.057 134.175L583.599 136.122C584.885 136.424 586.173 136.816 587.463 137.296L588.162 135.422ZM584.08 134.181C582.802 133.848 581.102 133.347 578.974 132.672L578.37 134.578C580.512 135.258 582.25 135.771 583.576 136.116L584.08 134.181ZM578.967 132.67C577.62 132.253 576.346 131.665 575.144 130.905L574.075 132.595C575.425 133.449 576.859 134.111 578.377 134.58L578.967 132.67ZM575.156 130.913C574.002 130.159 572.973 129.136 572.075 127.825L570.425 128.956C571.454 130.457 572.665 131.674 574.063 132.587L575.156 130.913ZM572.082 127.836C571.294 126.654 570.844 124.934 570.844 122.57H568.844C568.844 125.155 569.331 127.315 570.418 128.945L572.082 127.836ZM570.844 122.57C570.844 120.265 571.538 118.323 572.913 116.691L571.384 115.402C569.686 117.417 568.844 119.824 568.844 122.57H570.844ZM572.913 116.691C574.319 115.023 576.073 113.896 578.2 113.299L577.659 111.373C575.151 112.078 573.051 113.425 571.384 115.402L572.913 116.691ZM578.21 113.296C580.446 112.643 582.604 112.32 584.688 112.32V110.32C582.396 110.32 580.049 110.675 577.649 111.376L578.21 113.296ZM584.688 112.32C587.853 112.32 590.307 112.692 592.1 113.386L592.822 111.52C590.708 110.703 587.98 110.32 584.688 110.32V112.32ZM592.115 113.391C594.028 114.096 595.652 114.93 597 115.886L598.157 114.255C596.64 113.179 594.852 112.268 592.807 111.515L592.115 113.391ZM596.994 115.882C597.141 115.987 597.222 116.073 597.264 116.13C597.284 116.158 597.295 116.177 597.299 116.188C597.304 116.199 597.305 116.204 597.305 116.205C597.305 116.205 597.306 116.207 597.305 116.214C597.305 116.22 597.302 116.236 597.294 116.261C597.277 116.313 597.235 116.403 597.136 116.532L598.723 117.749C599.121 117.23 599.398 116.585 599.277 115.87C599.157 115.166 598.693 114.64 598.162 114.258L596.994 115.882ZM597.13 116.541L595.372 118.884L596.972 120.084L598.73 117.741L597.13 116.541ZM595.362 118.898C595.299 118.985 595.256 119.011 595.242 119.018C595.232 119.024 595.211 119.033 595.158 119.032C595.02 119.027 594.716 118.946 594.209 118.589L593.057 120.224C593.695 120.674 594.387 121.009 595.096 121.031C595.888 121.055 596.537 120.685 596.982 120.071L595.362 118.898ZM594.208 118.588C593.134 117.834 591.667 117.159 589.852 116.545L589.211 118.439C590.938 119.024 592.205 119.625 593.058 120.224L594.208 118.588ZM589.852 116.545C588.016 115.924 586.354 115.594 584.883 115.594V117.594C586.068 117.594 587.505 117.862 589.211 118.439L589.852 116.545ZM584.883 115.594C583.173 115.594 581.661 115.783 580.367 116.186L580.961 118.095C582.011 117.769 583.311 117.594 584.883 117.594V115.594ZM580.367 116.186C579.023 116.604 577.902 117.333 577.041 118.38L578.584 119.651C579.181 118.927 579.962 118.406 580.961 118.095L580.367 116.186ZM577.041 118.38C576.157 119.453 575.719 120.722 575.719 122.141H577.719C577.719 121.163 578.01 120.349 578.584 119.651L577.041 118.38ZM575.719 122.141C575.719 123.157 575.879 124.104 576.218 124.967L578.079 124.236C577.845 123.641 577.719 122.947 577.719 122.141H575.719ZM576.222 124.979C576.593 125.888 577.26 126.673 578.142 127.348L579.358 125.761C578.677 125.239 578.277 124.721 578.075 124.224L576.222 124.979ZM578.142 127.348C579.067 128.058 580.301 128.584 581.78 128.968L582.282 127.032C580.949 126.686 579.995 126.249 579.358 125.761L578.142 127.348ZM581.778 128.967C583.966 129.54 585.958 130.061 587.755 130.53L588.26 128.595C586.464 128.126 584.472 127.605 582.285 127.033L581.778 128.967ZM587.759 130.531C589.532 130.987 591.114 131.541 592.509 132.188L593.351 130.374C591.829 129.668 590.129 129.075 588.257 128.594L587.759 130.531ZM592.507 132.188C594.339 133.041 595.679 133.953 596.58 134.9L598.029 133.522C596.899 132.334 595.322 131.292 593.352 130.375L592.507 132.188ZM596.589 134.909C597.536 135.88 598.161 136.906 598.499 137.986L600.408 137.389C599.964 135.969 599.157 134.677 598.02 133.513L596.589 134.909ZM598.5 137.992C598.855 139.102 599.039 140.364 599.039 141.789H601.039C601.039 140.193 600.833 138.721 600.406 137.383L598.5 137.992ZM599.039 141.789C599.039 144.36 598.277 146.477 596.783 148.205L598.295 149.514C600.134 147.387 601.039 144.792 601.039 141.789H599.039ZM596.778 148.211C595.235 150.023 593.549 151.19 591.726 151.774L592.336 153.679C594.576 152.961 596.562 151.55 598.301 149.508L596.778 148.211ZM591.737 151.771C589.828 152.358 587.485 152.664 584.688 152.664V154.664C587.62 154.664 590.172 154.345 592.325 153.682L591.737 151.771ZM584.688 152.664C580.897 152.664 577.694 152.129 575.053 151.093L574.322 152.954C577.254 154.105 580.717 154.664 584.688 154.664V152.664ZM575.063 151.097C573.702 150.544 572.6 150.041 571.75 149.588C570.885 149.128 570.335 148.747 570.031 148.453L568.641 149.89C569.144 150.378 569.889 150.863 570.809 151.353C571.742 151.85 572.913 152.383 574.312 152.95L575.063 151.097ZM610.43 111.984V112.984H611.43V111.984H610.43ZM610.82 106.984L611.694 107.47L611.696 107.467L610.82 106.984ZM613.555 102.023L614.43 102.506L614.434 102.501L613.555 102.023ZM617.305 111.984H616.305V112.984H617.305V111.984ZM617.305 117.141V116.141H616.305V117.141H617.305ZM618.516 147.375L617.797 148.071L617.808 148.082L617.82 148.093L618.516 147.375ZM624.648 147.805L624.264 146.882L624.257 146.885L624.648 147.805ZM628.32 146.828L629.239 146.434L629.237 146.429L628.32 146.828ZM629.609 149.836L630.538 149.465L630.533 149.453L630.529 149.442L629.609 149.836ZM629.141 151.086L629.649 151.947L629.655 151.943L629.141 151.086ZM624.688 152.844L624.957 153.807L624.969 153.803L624.688 152.844ZM612.578 150.734L611.772 151.326L611.777 151.333L612.578 150.734ZM610.43 117.141H611.43V116.141H610.43V117.141ZM605.82 116.141C605.336 116.141 605.157 116.042 605.116 116.009C605.103 116 605.098 115.993 605.092 115.978C605.082 115.956 605.062 115.896 605.062 115.773H603.062C603.062 116.46 603.296 117.128 603.888 117.588C604.432 118.012 605.132 118.141 605.82 118.141V116.141ZM605.062 115.773V113.352H603.062V115.773H605.062ZM605.062 113.352C605.062 113.229 605.082 113.169 605.092 113.147C605.098 113.132 605.103 113.125 605.116 113.116C605.157 113.083 605.336 112.984 605.82 112.984V110.984C605.132 110.984 604.432 111.113 603.888 111.537C603.296 111.997 603.062 112.665 603.062 113.352H605.062ZM605.82 112.984H610.43V110.984H605.82V112.984ZM611.43 111.984V108.469H609.43V111.984H611.43ZM611.43 108.469C611.43 108.123 611.514 107.795 611.694 107.47L609.946 106.499C609.606 107.111 609.43 107.773 609.43 108.469H611.43ZM611.696 107.467L614.43 102.506L612.679 101.541L609.945 106.502L611.696 107.467ZM614.434 102.501C614.666 102.072 614.849 101.806 614.977 101.661C615.041 101.589 615.066 101.576 615.051 101.585C615.036 101.595 614.934 101.656 614.766 101.656V99.6562C614.147 99.6562 613.71 100.075 613.48 100.335C613.205 100.646 612.938 101.064 612.676 101.546L614.434 102.501ZM614.766 101.656H616.133V99.6562H614.766V101.656ZM616.133 101.656C616.233 101.656 616.276 101.671 616.283 101.674C616.284 101.674 616.267 101.666 616.252 101.649C616.229 101.622 616.305 101.687 616.305 102.023H618.305C618.305 101.448 618.185 100.83 617.771 100.347C617.332 99.8351 616.721 99.6562 616.133 99.6562V101.656ZM616.305 102.023V111.984H618.305V102.023H616.305ZM617.305 112.984H625.625V110.984H617.305V112.984ZM625.625 112.984C626.109 112.984 626.288 113.083 626.329 113.116C626.342 113.125 626.347 113.132 626.354 113.147C626.363 113.169 626.383 113.229 626.383 113.352H628.383C628.383 112.665 628.149 111.997 627.557 111.537C627.013 111.113 626.313 110.984 625.625 110.984V112.984ZM626.383 113.352V115.773H628.383V113.352H626.383ZM626.383 115.773C626.383 115.896 626.363 115.956 626.354 115.978C626.347 115.993 626.342 116 626.329 116.009C626.288 116.042 626.109 116.141 625.625 116.141V118.141C626.313 118.141 627.013 118.012 627.557 117.588C628.149 117.128 628.383 116.46 628.383 115.773H626.383ZM625.625 116.141H617.305V118.141H625.625V116.141ZM616.305 117.141V142.023H618.305V117.141H616.305ZM616.305 142.023C616.305 143.432 616.408 144.642 616.632 145.633C616.853 146.61 617.212 147.467 617.797 148.071L619.234 146.679C619.011 146.45 618.765 145.998 618.583 145.191C618.403 144.398 618.305 143.349 618.305 142.023H616.305ZM617.82 148.093C618.837 149.079 620.075 149.586 621.484 149.586V147.586C620.602 147.586 619.861 147.286 619.211 146.657L617.82 148.093ZM621.484 149.586C622.554 149.586 623.749 149.274 625.04 148.725L624.257 146.885C623.1 147.377 622.185 147.586 621.484 147.586V149.586ZM625.033 148.728C626.288 148.205 627.257 147.72 627.841 147.266L626.613 145.687C626.259 145.963 625.509 146.363 624.264 146.882L625.033 148.728ZM627.841 147.266C627.893 147.225 627.893 147.237 627.843 147.252C627.781 147.27 627.671 147.283 627.546 147.243C627.426 147.205 627.365 147.141 627.352 147.127C627.343 147.116 627.365 147.139 627.403 147.227L629.237 146.429C629.07 146.044 628.756 145.531 628.158 145.339C627.515 145.133 626.959 145.418 626.613 145.687L627.841 147.266ZM627.401 147.222L628.69 150.23L630.529 149.442L629.239 146.434L627.401 147.222ZM628.681 150.207C628.7 150.256 628.699 150.272 628.699 150.262C628.699 150.257 628.698 150.247 628.701 150.232C628.703 150.218 628.707 150.203 628.712 150.188C628.718 150.173 628.724 150.162 628.728 150.155C628.732 150.149 628.734 150.148 628.73 150.152C628.722 150.16 628.693 150.188 628.626 150.228L629.655 151.943C630.039 151.713 630.403 151.376 630.585 150.89C630.772 150.392 630.71 149.894 630.538 149.465L628.681 150.207ZM628.633 150.225C627.721 150.762 626.328 151.32 624.406 151.884L624.969 153.803C626.953 153.221 628.529 152.608 629.649 151.947L628.633 150.225ZM624.418 151.881C622.549 152.404 620.687 152.664 618.828 152.664V154.664C620.876 154.664 622.92 154.377 624.957 153.807L624.418 151.881ZM618.828 152.664C616.395 152.664 614.626 151.806 613.379 150.136L611.777 151.333C613.447 153.569 615.845 154.664 618.828 154.664V152.664ZM613.385 150.143C612.125 148.425 611.43 145.904 611.43 142.453H609.43C609.43 146.137 610.167 149.137 611.772 151.326L613.385 150.143ZM611.43 142.453V117.141H609.43V142.453H611.43ZM610.43 116.141H605.82V118.141H610.43V116.141Z" fill="#101630" mask="url(#path-2-outside-1_1_5)"/>
</g>
<path d="M156.875 67.4167H137V60.5C137 53.1624 134.208 46.1252 129.238 40.9367C124.269 35.7482 117.528 32.8333 110.5 32.8333C103.472 32.8333 96.7314 35.7482 91.7617 40.9367C86.792 46.1252 84 53.1624 84 60.5V67.4167H64.125C62.3679 67.4167 60.6828 68.1454 59.4404 69.4425C58.198 70.7396 57.5 72.4989 57.5 74.3333V150.417C57.5 155.92 59.594 161.198 63.3213 165.089C67.0485 168.981 72.1038 171.167 77.375 171.167H143.625C148.896 171.167 153.951 168.981 157.679 165.089C161.406 161.198 163.5 155.92 163.5 150.417V74.3333C163.5 72.4989 162.802 70.7396 161.56 69.4425C160.317 68.1454 158.632 67.4167 156.875 67.4167ZM97.25 60.5C97.25 56.8312 98.646 53.3126 101.131 50.7184C103.616 48.1241 106.986 46.6667 110.5 46.6667C114.014 46.6667 117.384 48.1241 119.869 50.7184C122.354 53.3126 123.75 56.8312 123.75 60.5V67.4167H97.25V60.5ZM150.25 150.417C150.25 152.251 149.552 154.01 148.31 155.308C147.067 156.605 145.382 157.333 143.625 157.333H77.375C75.6179 157.333 73.9328 156.605 72.6904 155.308C71.448 154.01 70.75 152.251 70.75 150.417V81.25H84V88.1667C84 90.0011 84.698 91.7604 85.9404 93.0575C87.1828 94.3546 88.8679 95.0833 90.625 95.0833C92.3821 95.0833 94.0672 94.3546 95.3096 93.0575C96.552 91.7604 97.25 90.0011 97.25 88.1667V81.25H123.75V88.1667C123.75 90.0011 124.448 91.7604 125.69 93.0575C126.933 94.3546 128.618 95.0833 130.375 95.0833C132.132 95.0833 133.817 94.3546 135.06 93.0575C136.302 91.7604 137 90.0011 137 88.1667V81.25H150.25V150.417Z" fill="#101630"/>
</g>
<defs>
<filter id="filter0_d_1_5" x="0" y="0" width="750" height="250" filterUnits="userSpaceOnUse" color-interpolation-filters="sRGB">
<feFlood flood-opacity="0" result="BackgroundImageFix"/>
<feColorMatrix in="SourceAlpha" type="matrix" values="0 0 0 0 0 0 0 0 0 0 0 0 0 0 0 0 0 0 127 0" result="hardAlpha"/>
<feOffset dx="15" dy="15"/>
<feGaussianBlur stdDeviation="12.5"/>
<feComposite in2="hardAlpha" operator="out"/>
<feColorMatrix type="matrix" values="0 0 0 0 0 0 0 0 0 0 0 0 0 0 0 0 0 0 0.5 0"/>
<feBlend mode="normal" in2="BackgroundImageFix" result="effect1_dropShadow_1_5"/>
<feBlend mode="normal" in="SourceGraphic" in2="effect1_dropShadow_1_5" result="shape"/>
</filter>
<filter id="filter1_d_1_5" x="212.641" y="55.3438" width="421.281" height="106.32" filterUnits="userSpaceOnUse" color-interpolation-filters="sRGB">
<feFlood flood-opacity="0" result="BackgroundImageFix"/>
<feColorMatrix in="SourceAlpha" type="matrix" values="0 0 0 0 0 0 0 0 0 0 0 0 0 0 0 0 0 0 127 0" result="hardAlpha"/>
<feOffset dy="4"/>
<feGaussianBlur stdDeviation="2"/>
<feComposite in2="hardAlpha" operator="out"/>
<feColorMatrix type="matrix" values="0 0 0 0 0 0 0 0 0 0 0 0 0 0 0 0 0 0 0.25 0"/>
<feBlend mode="normal" in2="BackgroundImageFix" result="effect1_dropShadow_1_5"/>
<feBlend mode="normal" in="SourceGraphic" in2="effect1_dropShadow_1_5" result="shape"/>
</filter>
</defs>
</svg>
